HIERARCHY
ROOT Hips
{
	OFFSET -0.001795 -0.223333 0.028219
	CHANNELS 6 Xposition Yposition Zposition Zrotation Yrotation Xrotation 
	JOINT LeftUpLeg
	{
		OFFSET 0.069520 -0.091406 -0.006815
		CHANNELS 3 Zrotation Yrotation Xrotation
		JOINT LeftLeg
		{
			OFFSET 0.034277 -0.375199 -0.004496
			CHANNELS 3 Zrotation Yrotation Xrotation
			JOINT LeftFoot
			{
				OFFSET -0.013596 -0.397961 -0.043693
				CHANNELS 3 Zrotation Yrotation Xrotation
				JOINT LeftToe
				{
					OFFSET 0.026358 -0.055791 0.119288
					CHANNELS 3 Zrotation Yrotation Xrotation
					End Site
					{
						OFFSET 0.000000 0.000000 0.000000
					}
				}
			}
		}
	}
	JOINT RightUpLeg
	{
		OFFSET -0.067670 -0.090522 -0.004320
		CHANNELS 3 Zrotation Yrotation Xrotation
		JOINT RightLeg
		{
			OFFSET -0.038290 -0.382569 -0.008850
			CHANNELS 3 Zrotation Yrotation Xrotation
			JOINT RightFoot
			{
				OFFSET 0.015774 -0.398415 -0.042312
				CHANNELS 3 Zrotation Yrotation Xrotation
				JOINT RightToe
				{
					OFFSET -0.025372 -0.048144 0.123348
					CHANNELS 3 Zrotation Yrotation Xrotation
					End Site
					{
						OFFSET 0.000000 0.000000 0.000000
					}
				}
			}
		}
	}
	JOINT Spine
	{
		OFFSET -0.002533 0.108963 -0.026696
		CHANNELS 3 Zrotation Yrotation Xrotation
		JOINT Spine1
		{
			OFFSET 0.005487 0.135180 0.001092
			CHANNELS 3 Zrotation Yrotation Xrotation
			JOINT Spine2
			{
				OFFSET 0.001457 0.052922 0.025425
				CHANNELS 3 Zrotation Yrotation Xrotation
				JOINT Neck
				{
					OFFSET -0.002778 0.213870 -0.042857
					CHANNELS 3 Zrotation Yrotation Xrotation
					JOINT Head
					{
						OFFSET 0.005152 0.064970 0.051349
						CHANNELS 3 Zrotation Yrotation Xrotation
						End Site
						{
							OFFSET 0.000000 0.000000 0.000000
						}
					}
				}
				JOINT LeftShoulder
				{
					OFFSET 0.078845 0.121749 -0.034090
					CHANNELS 3 Zrotation Yrotation Xrotation
					JOINT LeftArm
					{
						OFFSET 0.090977 0.030469 -0.008868
						CHANNELS 3 Zrotation Yrotation Xrotation
						JOINT LeftForeArm
						{
							OFFSET 0.259612 -0.012772 -0.027456
							CHANNELS 3 Zrotation Yrotation Xrotation
							JOINT LeftHand
							{
								OFFSET 0.249234 0.008986 -0.001171
								CHANNELS 3 Zrotation Yrotation Xrotation
								End Site
								{
									OFFSET 0.000000 0.000000 0.000000
								}
							}
						}
					}
				}
				JOINT RightShoulder
				{
					OFFSET -0.081759 0.118833 -0.038615
					CHANNELS 3 Zrotation Yrotation Xrotation
					JOINT RightArm
					{
						OFFSET -0.096012 0.032551 -0.009143
						CHANNELS 3 Zrotation Yrotation Xrotation
						JOINT RightForeArm
						{
							OFFSET -0.253742 -0.013329 -0.021401
							CHANNELS 3 Zrotation Yrotation Xrotation
							JOINT RightHand
							{
								OFFSET -0.255298 0.007772 -0.005559
								CHANNELS 3 Zrotation Yrotation Xrotation
								End Site
								{
									OFFSET 0.000000 0.000000 0.000000
								}
							}
						}
					}
				}
			}
		}
	}
}
MOTION
Frames: 10
Frame Time: 0.050000
0.410020 0.909921 -1.422315 1.932521 0.463190 -4.590209 16.946362 0.561141 -10.541346 -2.808034 0.260671 4.816101 1.327598 10.145423 26.022589 0.000000 0.000000 0.000000 -3.908779 0.456682 -6.380630 8.337639 -1.507155 17.207247 -5.357635 -12.408564 -4.563243 0.000000 0.000000 0.000000 10.590047 -4.094129 30.489736 -6.639627 2.177451 -27.102565 -3.844618 4.213329 22.766738 10.591068 -2.555129 -33.528459 0.000000 0.000000 0.000000 -26.480726 -12.709758 4.331396 -38.060727 -15.233155 -1.147242 -12.922701 -34.303554 5.173004 0.000000 0.000000 0.000000 32.721680 0.121856 -0.235643 40.083304 15.901566 -1.347425 8.782602 29.287051 3.555919 0.000000 0.000000 0.000000 
0.404243 0.910645 -1.423485 1.757558 0.580528 -4.719474 16.555265 0.468817 -9.501352 -1.222313 0.061356 3.035541 1.001126 9.919011 26.778811 0.000000 0.000000 0.000000 -3.352622 0.456633 -6.043572 8.409159 -1.516701 16.699353 -5.356133 -12.478096 -4.300730 0.000000 0.000000 0.000000 10.942624 -4.166126 30.254455 -6.708268 2.193449 -27.090722 -3.792347 4.333798 22.727086 10.512834 -2.689462 -32.286039 0.000000 0.000000 0.000000 -26.706463 -12.462126 4.096526 -38.621091 -13.826234 -1.542634 -13.822652 -34.303431 5.447726 0.000000 0.000000 0.000000 33.004360 -0.438313 -0.548495 40.392915 14.912498 -1.694624 9.357040 29.056159 3.690500 0.000000 0.000000 0.000000 
0.400685 0.910432 -1.423995 1.614522 0.831648 -4.685921 16.356186 0.409911 -8.949468 -0.272505 -0.027952 1.776913 0.744695 9.730761 27.168383 0.000000 0.000000 0.000000 -2.924680 0.460386 -5.861854 8.394928 -1.513419 16.276740 -5.445038 -12.727550 -4.403639 0.000000 0.000000 0.000000 11.393206 -4.241913 29.782811 -6.462920 2.149059 -26.948093 -4.100807 4.512899 22.791808 11.078414 -3.056131 -31.558120 0.000000 0.000000 0.000000 -27.067463 -11.725593 3.501477 -38.647903 -12.985611 -1.751729 -14.927555 -33.832269 5.689271 0.000000 0.000000 0.000000 33.064234 -1.519792 -1.180936 40.597026 13.775236 -2.098674 10.400670 29.444308 4.050503 0.000000 0.000000 0.000000 
0.398781 0.909674 -1.424749 1.600087 0.728387 -4.632082 16.199139 0.368350 -8.272834 0.289903 -0.049628 0.472889 0.736717 9.758114 27.442530 0.000000 0.000000 0.000000 -2.773338 0.484426 -6.080775 8.404369 -1.516832 16.462851 -5.463793 -12.712427 -4.672655 0.000000 0.000000 0.000000 11.622256 -4.266726 29.597952 -6.411779 2.142392 -26.777785 -4.350446 4.341307 22.743416 11.436373 -3.296554 -31.462513 0.000000 0.000000 0.000000 -27.379557 -11.454493 3.399835 -38.778783 -12.556753 -1.895492 -14.875276 -33.377906 5.611378 0.000000 0.000000 0.000000 33.343503 -2.106158 -1.713834 40.996474 13.245896 -2.240187 10.797711 29.233348 4.123304 0.000000 0.000000 0.000000 
0.397948 0.908737 -1.425886 1.544938 0.827704 -4.445978 16.066209 0.340868 -8.146504 0.723608 -0.067314 -0.302292 0.681114 9.729196 27.560043 0.000000 0.000000 0.000000 -2.582067 0.532651 -6.590441 8.304458 -1.513434 16.890886 -5.561781 -12.949025 -4.901572 0.000000 0.000000 0.000000 11.651859 -4.300324 29.641051 -6.148459 2.084433 -26.693436 -4.681854 4.102469 22.831852 11.629203 -3.420042 -31.475205 0.000000 0.000000 0.000000 -27.546186 -11.416615 3.439959 -38.845220 -12.643580 -1.887971 -14.618655 -32.882813 5.460713 0.000000 0.000000 0.000000 33.583021 -2.237292 -1.901580 41.417572 13.106995 -2.268559 10.767556 29.681399 4.197408 0.000000 0.000000 0.000000 
0.397774 0.908261 -1.427128 1.483978 1.125292 -4.370720 15.849675 0.302583 -8.043209 1.171873 -0.084839 -0.971354 0.512112 9.596491 27.657248 0.000000 0.000000 0.000000 -2.772757 0.583120 -7.404441 8.778554 -1.705725 18.036862 -5.655413 -13.287626 -4.600245 0.000000 0.000000 0.000000 11.602320 -4.425927 30.298675 -6.031854 2.056268 -26.735051 -4.751271 3.794388 22.793457 11.787349 -3.670879 -30.681960 0.000000 0.000000 0.000000 -28.122695 -11.793491 3.718504 -38.151180 -12.876515 -1.792744 -13.834552 -32.524788 5.168378 0.000000 0.000000 0.000000 33.870288 -2.370862 -2.097907 41.401951 13.234250 -2.201245 10.442218 29.786730 4.123659 0.000000 0.000000 0.000000 
0.398296 0.908067 -1.427928 1.417590 1.051959 -4.379497 15.708549 0.289828 -7.875961 1.512391 -0.103943 -1.299247 0.534443 9.620551 27.700776 0.000000 0.000000 0.000000 -2.681182 0.610397 -7.689037 8.682804 -1.692633 18.451632 -5.654384 -13.289242 -4.533144 0.000000 0.000000 0.000000 11.631750 -4.545049 31.033482 -5.779076 2.007112 -26.482946 -5.083905 3.826221 22.365296 11.522736 -3.502006 -30.665232 0.000000 0.000000 0.000000 -28.035227 -12.112806 3.886200 -37.932548 -13.445058 -1.573464 -14.011124 -32.640209 5.225834 0.000000 0.000000 0.000000 34.260117 -2.542237 -2.265118 41.632842 13.396416 -2.115860 9.920343 29.513040 3.948586 0.000000 0.000000 0.000000 
0.399583 0.908299 -1.428081 1.394212 0.983085 -4.519518 15.665251 0.268810 -7.253868 1.504915 -0.065718 -2.094911 0.560876 9.660832 27.783199 0.000000 0.000000 0.000000 -2.403131 0.628879 -7.723858 8.088633 -1.535953 18.790162 -5.666498 -13.325999 -4.473388 0.000000 0.000000 0.000000 11.787378 -4.707720 31.855335 -6.036593 2.048576 -27.015649 -5.074685 3.470543 22.439132 10.755819 -3.243437 -30.143881 0.000000 0.000000 0.000000 -28.220176 -12.350713 4.190835 -37.871700 -13.781207 -1.519068 -14.018754 -33.024575 5.315754 0.000000 0.000000 0.000000 34.289205 -2.535163 -2.462298 41.936327 13.278275 -2.084796 10.181395 29.594679 4.001791 0.000000 0.000000 0.000000 
0.401849 0.908632 -1.427616 1.604082 0.901306 -4.728925 15.346939 0.229900 -6.437389 1.420768 -0.016321 -3.001512 0.627551 9.733985 27.820073 0.000000 0.000000 0.000000 -2.447818 0.643248 -7.956106 7.482388 -1.386300 19.697825 -5.672356 -13.350198 -4.335163 0.000000 0.000000 0.000000 11.883333 -4.830607 32.589607 -6.184513 2.084163 -27.004836 -5.335397 3.437597 22.269436 10.009952 -2.823449 -30.255856 0.000000 0.000000 0.000000 -28.042612 -12.561717 4.336821 -37.781271 -14.514316 -1.296856 -13.531401 -33.629659 5.267681 0.000000 0.000000 0.000000 34.292766 -2.311337 -2.332667 42.000154 13.526855 -1.980422 9.911747 29.700773 3.942109 0.000000 0.000000 0.000000 
0.405027 0.909584 -1.427178 1.843716 0.382770 -5.338247 14.999346 0.228182 -5.624521 1.314917 -0.014741 -2.873655 0.889602 9.936625 27.683821 0.000000 0.000000 0.000000 -2.535468 0.601612 -7.494635 6.759812 -1.149048 20.089945 -5.499726 -12.855354 -4.173787 0.000000 0.000000 0.000000 11.824025 -4.898891 33.716813 -6.121481 2.072292 -27.032752 -5.573245 3.659817 22.245689 9.192066 -2.420994 -30.053704 0.000000 0.000000 0.000000 -27.713306 -12.533700 4.317801 -37.840750 -15.029784 -1.153315 -13.785650 -35.215314 5.610165 0.000000 0.000000 0.000000 33.889641 -2.604584 -2.517394 42.491975 14.194803 -1.752020 9.177915 29.612142 3.752880 0.000000 0.000000 0.000000 
